<svg width="22" height="20" viewBox="0 0 22 20" fill="none" xmlns="http://www.w3.org/2000/svg">
<path d="M12.3199 16.5264V14.2428C12.3199 14.1306 12.2818 14.0365 12.2057 13.9603C12.1296 13.8842 12.0394 13.8462 11.9353 13.8462H9.62757C9.5234 13.8462 9.43326 13.8842 9.35714 13.9603C9.28102 14.0365 9.24296 14.1306 9.24296 14.2428V16.5264C9.24296 16.6386 9.28102 16.7328 9.35714 16.8089C9.43326 16.885 9.5234 16.9231 9.62757 16.9231H11.9353C12.0394 16.9231 12.1296 16.885 12.2057 16.8089C12.2818 16.7328 12.3199 16.6386 12.3199 16.5264ZM12.2958 12.0312L12.5122 6.51442C12.5122 6.41827 12.4721 6.34215 12.392 6.28606C12.2878 6.19792 12.1917 6.15385 12.1035 6.15385H9.4593C9.37116 6.15385 9.27501 6.19792 9.17084 6.28606C9.09071 6.34215 9.05065 6.42628 9.05065 6.53846L9.25497 12.0312C9.25497 12.1114 9.29504 12.1775 9.37517 12.2296C9.45529 12.2817 9.55145 12.3077 9.66363 12.3077H11.8872C11.9994 12.3077 12.0935 12.2817 12.1696 12.2296C12.2458 12.1775 12.2878 12.1114 12.2958 12.0312ZM12.1276 0.805288L21.3583 17.7284C21.6388 18.2332 21.6308 18.738 21.3343 19.2428C21.1981 19.4752 21.0118 19.6595 20.7754 19.7957C20.539 19.9319 20.2846 20 20.0122 20H1.55065C1.27821 20 1.0238 19.9319 0.787426 19.7957C0.551048 19.6595 0.36475 19.4752 0.228532 19.2428C-0.067942 18.738 -0.0759549 18.2332 0.204494 17.7284L9.43526 0.805288C9.57148 0.556891 9.75978 0.360577 10.0002 0.216346C10.2406 0.0721154 10.501 0 10.7814 0C11.0619 0 11.3223 0.0721154 11.5627 0.216346C11.8031 0.360577 11.9914 0.556891 12.1276 0.805288Z" fill="#5F5F5F"/>
</svg>
