<svg width="22" height="20" viewBox="0 0 22 20" fill="none" xmlns="http://www.w3.org/2000/svg">
<path fill-rule="evenodd" clip-rule="evenodd" d="M15.2856 1.5127L4.49944 5.84661H0.39995C0.179978 5.84661 0 6.03159 0 6.26156V13.7356C0 13.9656 0.179978 14.1506 0.39995 14.1506H2.93963C2.84714 14.4405 2.79965 14.748 2.79965 15.0605C2.79965 16.7078 4.14448 18.0476 5.79928 18.0476C7.1841 18.0476 8.35146 17.1077 8.69641 15.8379L18.9101 19.9424C19.0076 19.9798 19.1051 19.9998 19.2001 19.9998C19.6225 19.9998 20 19.6449 20 19.17V6.87383C19.6804 6.95609 19.3453 6.99985 19 6.99985C16.7909 6.99985 15 5.20898 15 2.99985C15 2.4743 15.1014 1.97242 15.2856 1.5127ZM4.59943 15.0605C4.59943 15.7204 5.13686 16.2553 5.79928 16.2553C6.4292 16.2553 6.94663 15.7679 6.99663 15.153L4.87439 14.3006C4.69691 14.513 4.59943 14.7805 4.59943 15.0605Z" fill="#5F5F5F"/>
<circle cx="19" cy="3" r="3" fill="#FACB1C"/>
</svg>
