<svg width="22" height="21" viewBox="0 0 22 21" fill="none" xmlns="http://www.w3.org/2000/svg">
<path fill-rule="evenodd" clip-rule="evenodd" d="M20.5128 6.70403V16.3846C20.5128 16.6566 20.4048 16.9175 20.2124 17.1099C20.0201 17.3022 19.7592 17.4103 19.4872 17.4103H4.56923L0 21V2.02564C0 1.75362 0.108058 1.49275 0.300403 1.3004C0.492748 1.10806 0.753624 1 1.02564 1H15.5351C15.1948 1.58835 15 2.27143 15 3C15 3.01712 15.0001 3.03421 15.0003 3.05128H2.05128V16.7795L3.85949 15.359H18.4615V6.96407C18.6377 6.98776 18.8174 7 19 7C19.5353 7 20.0461 6.89483 20.5128 6.70403ZM11.2821 14.3333V12.2821H9.23077V14.3333H11.2821ZM7.65784 5.18767C7.18853 5.67984 6.86864 6.29517 6.73539 6.96205L8.74769 7.36513C8.8048 7.07942 8.94186 6.8158 9.14294 6.60494C9.34402 6.39408 9.60083 6.24466 9.88351 6.17406C10.1662 6.10345 10.4631 6.11457 10.7397 6.20612C11.0163 6.29767 11.2612 6.46589 11.446 6.69119C11.6307 6.9165 11.7477 7.18963 11.7833 7.47881C11.8188 7.768 11.7716 8.06134 11.6469 8.3247C11.5223 8.58807 11.3255 8.81063 11.0793 8.96649C10.8331 9.12236 10.5478 9.20511 10.2564 9.20513H9.23077V11.2564H10.2564C10.9365 11.2564 11.6026 11.0633 12.1772 10.6996C12.7518 10.3358 13.2113 9.81639 13.5022 9.20169C13.7931 8.58699 13.9035 7.90232 13.8205 7.22734C13.7375 6.55236 13.4645 5.91483 13.0333 5.38894C12.6021 4.86305 12.0304 4.47042 11.3848 4.25673C10.7392 4.04305 10.0462 4.0171 9.38637 4.18191C8.72658 4.34671 8.12715 4.69549 7.65784 5.18767Z" fill="#5F5F5F"/>
<circle cx="19" cy="3" r="3" fill="#FACB1C"/>
</svg>
