<svg width="20" height="20" viewBox="0 0 20 20" fill="none" xmlns="http://www.w3.org/2000/svg">
<path fill-rule="evenodd" clip-rule="evenodd" d="M4.66529 0.915291C4.07924 1.50134 3.75 2.2962 3.75 3.125V3.1325C3.7486 3.3393 3.76448 3.54585 3.7975 3.75H1.25C0.918479 3.75 0.600537 3.8817 0.366117 4.11612C0.131696 4.35054 0 4.66848 0 5V6.25C0 6.58152 0.131696 6.89946 0.366117 7.13388C0.600537 7.3683 0.918479 7.5 1.25 7.5H13.2908C13.1033 7.03678 13 6.53045 13 6C13 5.1657 13.2554 4.39105 13.6923 3.75H11.25V3.125C11.25 2.62772 11.4475 2.15081 11.7992 1.79917C12.1508 1.44754 12.6277 1.25 13.125 1.25C13.6223 1.25 14.0992 1.44754 14.4508 1.79917C14.6714 2.01971 14.8313 2.28952 14.9199 2.58274C15.2739 2.36677 15.6642 2.20427 16.0794 2.10647C15.9262 1.66219 15.6733 1.25389 15.3347 0.915291C14.7487 0.32924 13.9538 0 13.125 0C12.2962 0 11.5013 0.32924 10.9153 0.915291C10.3292 1.50134 10 2.2962 10 3.125C10 2.2962 9.67076 1.50134 9.08471 0.915291C8.49866 0.32924 7.7038 0 6.875 0C6.0462 0 5.25134 0.32924 4.66529 0.915291ZM14.0953 8.75C14.8243 9.51981 15.8561 10 17 10C17.6276 10 18.2214 9.85547 18.75 9.59788V18.125C18.75 18.6223 18.5525 19.0992 18.2008 19.4508C17.8492 19.8025 17.3723 20 16.875 20H11.25V8.75H14.0953ZM8.75 3.75H5.085C5.07337 3.72155 5.06376 3.69231 5.05625 3.6625C5.0025 3.4675 5 3.23125 5 3.125C5 2.87877 5.0485 2.63495 5.14273 2.40747C5.23695 2.17998 5.37506 1.97328 5.54917 1.79917C5.72328 1.62506 5.92998 1.48695 6.15747 1.39273C6.38495 1.2985 6.62877 1.25 6.875 1.25C7.12123 1.25 7.36505 1.2985 7.59253 1.39273C7.82002 1.48695 8.02672 1.62506 8.20083 1.79917C8.37494 1.97328 8.51305 2.17998 8.60727 2.40747C8.7015 2.63495 8.75 2.87877 8.75 3.125V3.75ZM1.79917 19.4508C2.15081 19.8025 2.62772 20 3.125 20H8.75V8.75H1.25V18.125C1.25 18.6223 1.44754 19.0992 1.79917 19.4508Z" fill="#5F5F5F"/>
<circle cx="17" cy="6" r="3" fill="#FACB1C"/>
</svg>
