<svg width="20" height="20" viewBox="0 0 20 20" fill="none" xmlns="http://www.w3.org/2000/svg">
<path d="M19.3434 10.6223C19.2611 10.6228 19.1795 10.607 19.1033 10.5759C19.0272 10.5448 18.9579 10.4989 18.8995 10.441L9.96565 1.50093L1.03183 10.441C0.912235 10.5434 0.758393 10.5969 0.60105 10.5909C0.443708 10.5848 0.294453 10.5196 0.183111 10.4082C0.0717703 10.2969 0.00654372 10.1476 0.000466248 9.99028C-0.00561122 9.83294 0.047908 9.67909 0.150329 9.5595L9.52803 0.181798C9.64516 0.0653574 9.80362 0 9.96878 0C10.1339 0 10.2924 0.0653574 10.4095 0.181798L19.7872 9.5595C19.8733 9.64726 19.9315 9.75844 19.9547 9.87912C19.9779 9.99981 19.965 10.1247 19.9177 10.2381C19.8703 10.3515 19.7906 10.4484 19.6884 10.5167C19.5863 10.5851 19.4662 10.6218 19.3434 10.6223Z" fill="#5F5F5F"/>
<path d="M9.96603 3.61426L2.46387 11.1414V18.7499C2.46387 19.0815 2.5956 19.3995 2.83009 19.634C3.06458 19.8685 3.38261 20.0002 3.71423 20.0002H8.09049V13.7484H11.8416V20.0002H16.2178C16.5494 20.0002 16.8675 19.8685 17.102 19.634C17.3365 19.3995 17.4682 19.0815 17.4682 18.7499V11.0977L9.96603 3.61426Z" fill="#5F5F5F"/>
</svg>
