<svg width="20" height="20" viewBox="0 0 20 20" fill="none" xmlns="http://www.w3.org/2000/svg">
<path fill-rule="evenodd" clip-rule="evenodd" d="M19.2767 6.28929C18.6305 6.73741 17.8459 7 17 7C16.604 7 16.2214 6.94245 15.8602 6.83527C15.9606 7.02206 16.0536 7.21542 16.1393 7.41536C16.4909 8.23568 16.6667 9.09722 16.6667 10C16.6667 10.9028 16.4909 11.7643 16.1393 12.5846C15.7878 13.4049 15.3125 14.1146 14.7135 14.7135C14.1146 15.3125 13.4049 15.7878 12.5846 16.1393C11.7643 16.4909 10.9028 16.6667 10 16.6667C8.96701 16.6667 7.99045 16.441 7.07031 15.9896C6.15017 15.5382 5.37326 14.9002 4.73958 14.0755C4.67882 13.9887 4.57899 13.9366 4.4401 13.9193C4.3099 13.9193 4.20139 13.9583 4.11458 14.0365L2.33073 15.8333C2.26128 15.9028 2.22439 15.9918 2.22005 16.1003C2.21571 16.2088 2.24392 16.3064 2.30469 16.3932C3.25087 17.5391 4.3967 18.4266 5.74219 19.056C7.08767 19.6853 8.50694 20 10 20C11.3542 20 12.6476 19.7352 13.8802 19.2057C15.1128 18.6762 16.1762 17.9644 17.0703 17.0703C17.9644 16.1762 18.6762 15.1128 19.2057 13.8802C19.7352 12.6476 20 11.3542 20 10C20 8.70776 19.7589 7.47086 19.2767 6.28929ZM13.7107 0.723285C12.5291 0.241096 11.2922 0 10 0C8.72396 0 7.48915 0.240885 6.29557 0.722656C5.102 1.20443 4.0408 1.88368 3.11198 2.76042L1.41927 1.08073C1.15885 0.811632 0.859375 0.750868 0.520833 0.898438C0.173611 1.04601 0 1.30208 0 1.66667V7.5C0 7.72569 0.0824653 7.92101 0.247396 8.08594C0.412326 8.25087 0.607639 8.33333 0.833333 8.33333H6.66667C7.03125 8.33333 7.28733 8.15972 7.4349 7.8125C7.58247 7.47396 7.5217 7.17448 7.2526 6.91406L5.46875 5.11719C6.07639 4.54427 6.77083 4.10373 7.55208 3.79557C8.33333 3.48741 9.14931 3.33333 10 3.33333C10.9028 3.33333 11.7643 3.50911 12.5846 3.86068C12.7846 3.94637 12.9779 4.03941 13.1647 4.13979C13.0575 3.77857 13 3.39601 13 3C13 2.15407 13.2626 1.36948 13.7107 0.723285ZM11.6667 12.0833V6.25C11.6667 6.12847 11.6276 6.02865 11.5495 5.95052C11.4714 5.8724 11.3715 5.83333 11.25 5.83333H10.4167C10.2951 5.83333 10.1953 5.8724 10.1172 5.95052C10.0391 6.02865 10 6.12847 10 6.25V10.8333H7.08333C6.96181 10.8333 6.86198 10.8724 6.78385 10.9505C6.70573 11.0286 6.66667 11.1285 6.66667 11.25V12.0833C6.66667 12.2049 6.70573 12.3047 6.78385 12.3828C6.86198 12.4609 6.96181 12.5 7.08333 12.5H11.25C11.3715 12.5 11.4714 12.4609 11.5495 12.3828C11.6276 12.3047 11.6667 12.2049 11.6667 12.0833Z" fill="#5F5F5F"/>
<circle cx="17" cy="3" r="3" fill="#FACB1C"/>
</svg>
