<svg width="156" height="174" viewBox="0 0 156 174" fill="none" xmlns="http://www.w3.org/2000/svg">
<g clip-path="url(#clip0_390_12981)">
<path d="M130.41 163.38H76.8604C75.0293 162.833 73.424 161.709 72.2834 160.175C71.1428 158.642 70.528 156.781 70.5304 154.87V147.14C70.5304 144.788 71.4649 142.532 73.1284 140.868C74.7918 139.205 77.0479 138.27 79.4004 138.27H86.1604C87.5461 138.233 88.8983 137.836 90.0844 137.118C91.2705 136.401 92.2499 135.387 92.9264 134.177C93.603 132.968 93.9535 131.603 93.9437 130.216C93.9339 128.83 93.564 127.47 92.8704 126.27L51.4604 56.0401C50.7514 54.8487 49.745 53.8619 48.5398 53.1765C47.3345 52.4912 45.9719 52.1309 44.5854 52.1309C43.1989 52.1309 41.8363 52.4912 40.6311 53.1765C39.4258 53.8619 38.4194 54.8487 37.7104 56.0401L27.1704 73.9201C27.1508 73.9622 27.1274 74.0024 27.1004 74.0401L25.5504 76.6801L23.2304 80.5901L23.1704 80.7101L23.0804 80.8501C21.8682 82.8183 19.934 84.234 17.6915 84.7946C15.449 85.3552 13.0762 85.0163 11.0804 83.8501L4.27041 79.8501C2.27186 78.641 0.82881 76.6945 0.252599 74.4309C-0.323612 72.1672 0.0132116 69.7677 1.1904 67.7501L1.26041 67.6401L3.57041 63.7201L37.7104 5.83013C38.4194 4.63864 39.4258 3.65186 40.6311 2.96655C41.8363 2.28123 43.1989 1.9209 44.5854 1.9209C45.9719 1.9209 47.3345 2.28123 48.5398 2.96655C49.745 3.65186 50.7514 4.63864 51.4604 5.83013L137.28 151.34C137.99 152.553 138.368 153.931 138.375 155.337C138.383 156.742 138.02 158.124 137.324 159.345C136.627 160.566 135.622 161.581 134.408 162.289C133.194 162.998 131.816 163.374 130.41 163.38Z" fill="white"/>
<path d="M57.8401 85.1904C57.8336 87.4697 57.178 89.7 55.9501 91.6204L28.6501 134.47C27.8011 135.801 26.6984 136.951 25.405 137.855C24.1115 138.759 22.6527 139.4 21.1117 139.74C19.5707 140.08 17.9778 140.114 16.4238 139.838C14.8699 139.563 13.3854 138.984 12.0551 138.135C10.7248 137.286 9.57479 136.184 8.67066 134.89C7.76653 133.597 7.12602 132.138 6.78569 130.597C6.44537 129.056 6.41189 127.463 6.68718 125.909C6.96247 124.355 7.54113 122.871 8.39012 121.54L35.6701 78.7104C37.0576 76.4947 39.1307 74.7926 41.5742 73.8631C44.0177 72.9337 46.6979 72.8276 49.2072 73.561C51.7165 74.2945 53.9177 75.8273 55.476 77.9265C57.0342 80.0256 57.8644 82.5762 57.8401 85.1904Z" fill="white"/>
<path d="M74.1502 118.62C74.1474 120.906 73.4917 123.144 72.2602 125.07L44.9702 167.94C43.2569 170.628 40.5459 172.525 37.4338 173.214C34.3216 173.903 31.0631 173.328 28.3752 171.615C25.6872 169.901 23.7899 167.19 23.1007 164.078C22.4115 160.966 22.9869 157.708 24.7002 155.02L51.9802 112.19C53.3668 109.975 55.4381 108.274 57.8796 107.344C60.3211 106.415 62.9993 106.307 65.5075 107.038C68.0158 107.769 70.217 109.298 71.7768 111.394C73.3367 113.49 74.17 116.037 74.1502 118.65V118.62Z" fill="white"/>
<path d="M103.82 61.0698C103.239 61.4102 102.597 61.6321 101.93 61.7228C101.262 61.8135 100.584 61.7712 99.9329 61.5982C99.2821 61.4253 98.672 61.1252 98.1378 60.7153C97.6036 60.3054 97.1559 59.7937 96.8204 59.2098L67.4504 8.26983C67.1101 7.68882 66.8881 7.04615 66.7974 6.37892C66.7068 5.71169 66.7491 5.03309 66.922 4.38231C67.0949 3.73152 67.395 3.12143 67.805 2.58722C68.2149 2.05301 68.7266 1.60527 69.3104 1.26983C82.0204 -2.49017 98.4704 2.20983 106.56 10.9998C106.56 10.9998 109.49 14.6898 110.27 16.0498C111.05 17.4098 112.76 21.6798 112.76 21.6798C117.41 36.2598 112.44 53.4698 103.82 61.0698Z" fill="white"/>
<path d="M145.16 131.94C144.578 132.281 143.935 132.504 143.267 132.594C142.599 132.685 141.92 132.642 141.269 132.468C140.618 132.294 140.007 131.993 139.474 131.581C138.94 131.169 138.493 130.656 138.16 130.07L108.75 79.14C108.41 78.5583 108.188 77.9151 108.098 77.2475C108.008 76.5799 108.052 75.901 108.226 75.2502C108.399 74.5993 108.7 73.9893 109.111 73.4555C109.522 72.9217 110.035 72.4746 110.62 72.14C123.33 68.38 139.77 73.0799 147.86 81.8699C147.86 81.8699 150.79 85.57 151.58 86.93C152.37 88.29 154.06 92.55 154.06 92.55C158.75 107.16 153.78 124.37 145.16 131.94Z" fill="white"/>
</g>
<defs>
<clipPath id="clip0_390_12981">
<rect width="155.88" height="173.46" fill="white"/>
</clipPath>
</defs>
</svg>
