<svg width="321" height="139" viewBox="0 0 321 139" fill="none" xmlns="http://www.w3.org/2000/svg">
<g clip-path="url(#clip0_390_12989)">
<path d="M104.146 130.922H61.3776C59.916 130.483 58.6349 129.582 57.7253 128.353C56.8157 127.124 56.3263 125.633 56.33 124.103V117.884C56.329 116.951 56.5112 116.027 56.8664 115.165C57.2215 114.303 57.7426 113.519 58.3998 112.859C59.057 112.199 59.8374 111.675 60.6964 111.318C61.5555 110.96 62.4763 110.776 63.4062 110.776H68.8052C69.9119 110.746 70.9919 110.428 71.9392 109.853C72.8865 109.278 73.6687 108.466 74.209 107.497C74.7493 106.527 75.0293 105.434 75.0215 104.323C75.0136 103.212 74.7182 102.122 74.1643 101.16L41.0995 44.8825C40.5337 43.9259 39.7296 43.1334 38.7662 42.583C37.8028 42.0326 36.7133 41.7432 35.6046 41.7432C34.496 41.7432 33.4064 42.0326 32.443 42.583C31.4796 43.1334 30.6755 43.9259 30.1098 44.8825L21.6839 59.2024L21.636 59.2986L20.39 61.4141L18.5451 64.5473L18.4892 64.6435L18.4173 64.7557C17.4492 66.3328 15.9044 67.4673 14.1134 67.9166C12.3224 68.3658 10.4273 68.0942 8.83334 67.1597L3.39442 63.9543C2.32282 63.3123 1.44074 62.3957 0.83864 61.2987C0.236543 60.2018 -0.0638993 58.9638 -0.0318608 57.7119C-0.0079253 56.4969 0.324701 55.3082 0.934525 54.2582L0.99842 54.17L2.83535 51.0288L30.1018 4.63936C30.6676 3.68274 31.4716 2.89027 32.435 2.33985C33.3984 1.78943 34.488 1.5 35.5966 1.5C36.7053 1.5 37.7949 1.78943 38.7583 2.33985C39.7217 2.89027 40.5257 3.68274 41.0915 4.63936L109.633 121.282C110.198 122.254 110.498 123.358 110.503 124.482C110.508 125.607 110.218 126.714 109.662 127.691C109.106 128.667 108.304 129.48 107.335 130.048C106.367 130.615 105.267 130.916 104.146 130.922Z" fill="#53AE3D"/>
<path d="M46.1868 68.2655C46.1874 70.0929 45.6634 71.8817 44.6774 73.4181L22.8738 107.755C22.1957 108.821 21.315 109.743 20.282 110.468C19.2489 111.192 18.0838 111.705 16.8531 111.978C15.6223 112.251 14.3501 112.278 13.109 112.057C11.868 111.836 10.6824 111.373 9.6199 110.692C8.55744 110.012 7.63894 109.128 6.91684 108.092C6.19475 107.055 5.68319 105.886 5.41138 104.651C5.13957 103.417 5.11284 102.14 5.3327 100.895C5.55257 99.6497 6.01473 98.4601 6.69279 97.3941L28.4884 63.0729C29.5981 61.3011 31.2534 59.9409 33.2034 59.1986C35.1533 58.4563 37.2913 58.3725 39.293 58.9598C41.2948 59.5471 43.0509 60.7735 44.2951 62.4529C45.5392 64.1323 46.2034 66.1731 46.1868 68.2655Z" fill="#FACB1C"/>
<path d="M59.2208 95.0545C59.2223 96.8982 58.6956 98.7034 57.7033 100.255L35.9157 134.552C34.5473 136.707 32.3818 138.229 29.8955 138.782C27.4091 139.335 24.8057 138.874 22.6578 137.501C20.51 136.128 18.9937 133.956 18.4425 131.461C17.8913 128.966 18.3504 126.354 19.7187 124.199L41.5063 89.8779C42.6122 88.0997 44.2669 86.7328 46.2184 85.9851C48.17 85.2375 50.3115 85.1501 52.3172 85.7362C54.3228 86.3223 56.0826 87.5498 57.3289 89.2319C58.5751 90.914 59.2394 92.9586 59.2208 95.0545Z" fill="#FACB1C"/>
<path d="M82.9098 48.9693C82.4461 49.2431 81.9328 49.4218 81.3996 49.495C80.8665 49.5683 80.3242 49.5346 79.8041 49.396C79.2841 49.2573 78.7966 49.0165 78.3701 48.6874C77.9435 48.3582 77.5863 47.9474 77.3192 47.4788L53.8623 6.62659C53.5898 6.1608 53.4121 5.64532 53.3397 5.11008C53.2673 4.57485 53.3015 4.03051 53.4405 3.50866C53.5794 2.98682 53.8203 2.49786 54.1491 2.07016C54.4779 1.64247 54.8881 1.28457 55.3559 1.01722C65.5069 -1.99581 78.637 1.77048 85.0982 8.81423C85.0982 8.81423 87.4383 11.7712 88.0692 12.8209C88.7002 13.8707 90.0499 17.3324 90.0499 17.3324C93.7637 29.056 89.7943 42.847 82.9098 48.9693Z" fill="#9BC22F"/>
<path d="M115.926 105.753C115.462 106.025 114.948 106.202 114.415 106.275C113.881 106.347 113.339 106.312 112.819 106.173C112.3 106.033 111.812 105.792 111.386 105.463C110.96 105.133 110.603 104.723 110.335 104.254L86.8466 63.442C86.5762 62.9757 86.4003 62.4603 86.329 61.9255C86.2577 61.3907 86.2925 60.8471 86.4312 60.3258C86.57 59.8046 86.8101 59.316 87.1377 58.8881C87.4653 58.4602 87.8739 58.1016 88.3401 57.8327C98.4912 54.8196 111.621 58.5859 118.082 65.6297C118.082 65.6297 120.423 68.5946 121.054 69.6844C121.684 70.7743 123.034 74.188 123.034 74.188C126.788 85.8715 122.819 99.6625 115.926 105.753Z" fill="#9BC22F"/>
<path d="M145.118 81.9767C146.715 89.0846 151.443 93.2916 160.212 93.2916C169.972 93.2916 173.71 88.3954 173.71 82.5858C173.71 76.5437 171.034 72.7934 159.294 69.8846C148.017 67.0558 143.137 63.3857 143.137 55.6608C143.137 48.6251 148.24 42.0381 159.677 42.0381C171.418 42.0381 176.377 49.2501 177.064 55.7249H172.791C171.569 49.9873 167.832 45.8605 159.446 45.8605C151.747 45.8605 147.554 49.4585 147.554 55.4204C147.554 61.3824 151.06 63.6101 160.899 66.0542C175.914 69.8044 178.126 75.8465 178.126 82.2732C178.126 90.1504 172.408 96.9617 160.061 96.9617C146.715 96.9617 141.835 89.1567 140.845 81.9687L145.118 81.9767Z" fill="#53AE3D"/>
<path d="M195.738 77.8177L188.949 96.3286H184.756L204.355 42.7832H209.235L229.665 96.3286H225.168L218.228 77.8177H195.738ZM216.854 73.9953C210.912 58.0807 207.861 50.436 206.791 46.838H206.719C205.417 50.8927 201.991 60.3806 197.183 73.9953H216.854Z" fill="#53AE3D"/>
<path d="M239.112 42.8076H258.176C267.936 42.8076 274.645 48.2407 274.645 57.7285C274.645 67.3446 268.008 73.0261 257.641 73.0261H243.305V96.353H239.112V42.8076ZM243.305 69.1957H258.025C266.642 69.1957 270.22 64.612 270.22 57.8808C270.22 50.6687 265.492 46.662 258.328 46.662H243.305V69.1957Z" fill="#53AE3D"/>
<path d="M285.468 42.8076H304.532C314.292 42.8076 321 48.2407 321 57.7285C321 67.3446 314.363 73.0261 303.997 73.0261H289.621V96.353H285.428L285.468 42.8076ZM289.661 69.1957H304.412C313.022 69.1957 316.608 64.612 316.608 57.8808C316.608 50.6687 311.88 46.662 304.716 46.662H289.661V69.1957Z" fill="#53AE3D"/>
<path d="M153.208 125.721C153.208 123.221 153.248 120.425 153.312 118.774H153.216C152.529 121.755 151.076 126.627 149.678 131.203H146.995C145.932 127.196 144.423 121.651 143.8 118.734H143.704C143.824 120.449 143.888 123.462 143.888 125.946V131.187H141.013V116.578H145.701C146.835 120.401 148.097 125.193 148.552 127.372C148.904 125.449 150.509 120.328 151.747 116.578H156.267V131.203H153.224L153.208 125.721Z" fill="#9BC22F"/>
<path d="M192.391 125.689C192.391 129.015 190.41 131.459 186.944 131.459C183.478 131.459 181.577 129.055 181.577 125.753C181.577 122.452 183.614 119.968 187.088 119.968C190.307 119.968 192.391 122.252 192.391 125.689ZM184.652 125.689C184.652 127.805 185.554 129.055 187.048 129.055C188.542 129.055 189.348 127.805 189.348 125.705C189.348 123.414 188.51 122.324 187 122.324C185.491 122.324 184.652 123.389 184.652 125.713V125.689Z" fill="#9BC22F"/>
<path d="M217.597 115.721H220.624V121.394C220.974 120.902 221.446 120.511 221.995 120.261C222.543 120.01 223.147 119.909 223.747 119.968C226.726 119.968 228.211 122.436 228.211 125.521C228.211 128.606 226.614 131.459 223.419 131.459C221.822 131.459 221.079 130.962 220.544 130.161C220.539 130.511 220.502 130.859 220.432 131.203H217.533C217.533 130.009 217.533 128.799 217.533 127.613L217.597 115.721ZM225.144 125.577C225.144 123.75 224.466 122.372 222.828 122.372C221.191 122.372 220.488 123.502 220.488 125.737C220.488 127.589 221.031 129.007 222.796 129.007C224.338 129.039 225.144 127.653 225.144 125.577Z" fill="#9BC22F"/>
<path d="M253.417 115.721H256.444V118.429H253.417V115.721ZM253.417 120.224H256.444V131.203H253.417V120.224Z" fill="#9BC22F"/>
<path d="M282.289 131.203V115.721H285.316V131.203H282.289Z" fill="#9BC22F"/>
<path d="M313.565 126.363C313.565 127.741 314.251 129.08 315.761 129.08C316.166 129.144 316.58 129.061 316.93 128.847C317.28 128.633 317.542 128.3 317.67 127.91H320.697C320.313 129.248 319.099 131.46 315.681 131.46C312.079 131.46 310.514 128.751 310.514 125.85C310.514 122.404 312.279 119.944 315.785 119.944C319.547 119.944 320.824 122.677 320.824 125.417C320.832 125.725 320.819 126.033 320.785 126.339L313.565 126.363ZM317.79 124.496C317.79 123.222 317.262 122.148 315.785 122.148C314.307 122.148 313.748 123.15 313.628 124.496H317.79Z" fill="#9BC22F"/>
</g>
<defs>
<clipPath id="clip0_390_12989">
<rect width="321" height="139" fill="white"/>
</clipPath>
</defs>
</svg>
