<svg width="78" height="88" viewBox="0 0 78 88" fill="none" xmlns="http://www.w3.org/2000/svg">
<path d="M65.5863 82.2356H38.6615C37.7414 81.9607 36.9349 81.3964 36.3622 80.6267C35.7896 79.857 35.4815 78.9232 35.4839 77.9645V74.0698C35.4832 73.4855 35.5979 72.9067 35.8215 72.3666C36.0451 71.8265 36.3731 71.3357 36.7869 70.9223C37.2006 70.5088 37.6919 70.1808 38.2327 69.9571C38.7735 69.7333 39.3532 69.6181 39.9387 69.6181H43.3376C44.0343 69.5993 44.7142 69.4 45.3105 69.04C45.9069 68.6799 46.3993 68.1713 46.7395 67.564C47.0797 66.9568 47.2559 66.2717 47.251 65.576C47.246 64.8803 47.0601 64.1978 46.7113 63.5954L25.8955 28.3478C25.5394 27.7487 25.0332 27.2523 24.4267 26.9076C23.8201 26.5629 23.1342 26.3816 22.4363 26.3816C21.7383 26.3816 21.0524 26.5629 20.4459 26.9076C19.8394 27.2523 19.3332 27.7487 18.977 28.3478L13.6725 37.3166L13.6424 37.3768L12.858 38.7018L11.6965 40.6642L11.6613 40.7244L11.6161 40.7946C11.0066 41.7824 10.0341 42.493 8.90656 42.7743C7.77905 43.0557 6.586 42.8856 5.58251 42.3003L2.15846 40.2928C1.48384 39.8906 0.928528 39.3166 0.54948 38.6295C0.170432 37.9425 -0.0187098 37.1671 0.00145988 36.383C0.0165283 35.6221 0.225932 34.8775 0.609844 34.2199L0.650069 34.1647L1.8065 32.1973L18.972 3.14298C19.3282 2.54384 19.8344 2.0475 20.4409 1.70277C21.0474 1.35803 21.7333 1.17676 22.4312 1.17676C23.1292 1.17676 23.8151 1.35803 24.4216 1.70277C25.0281 2.0475 25.5343 2.54384 25.8905 3.14298L69.0405 76.1979C69.3961 76.8065 69.585 77.4978 69.5882 78.2023C69.5914 78.9068 69.4088 79.5998 69.0588 80.2116C68.7088 80.8234 68.2036 81.3326 67.5941 81.6878C66.9846 82.0431 66.2921 82.232 65.5863 82.2356Z" fill="#53AE3D"/>
<path d="M29.0584 43.1989C29.0588 44.3453 28.7265 45.4676 28.1012 46.4315L14.2751 67.9739C13.8451 68.6427 13.2866 69.2209 12.6316 69.6754C11.9765 70.13 11.2377 70.452 10.4572 70.6231C9.67678 70.7942 8.87004 70.811 8.08305 70.6726C7.29606 70.5342 6.54424 70.2433 5.87051 69.8164C5.19678 69.3896 4.61435 68.8353 4.15645 68.185C3.69855 67.5347 3.37416 66.8013 3.2018 66.0266C3.02944 65.2518 3.01249 64.451 3.15191 63.6698C3.29133 62.8886 3.5844 62.1423 4.01437 61.4735L17.8354 39.9411C18.5391 38.8296 19.5888 37.9762 20.8253 37.5105C22.0618 37.0448 23.4176 36.9922 24.6869 37.3607C25.9562 37.7291 27.0699 38.4985 27.8588 39.5522C28.6477 40.6058 29.0689 41.8861 29.0584 43.1989Z" fill="#FACB1C"/>
<path d="M37.4705 60.0252C37.4714 61.1813 37.1375 62.3133 36.5083 63.2864L22.6939 84.7931C21.8263 86.1445 20.4532 87.0985 18.8768 87.4453C17.3003 87.792 15.6496 87.5032 14.2878 86.6423C12.9259 85.7814 11.9645 84.4189 11.615 82.8546C11.2656 81.2902 11.5566 79.6522 12.4242 78.3009L26.2387 56.7791C26.9398 55.6641 27.989 54.8069 29.2263 54.3381C30.4637 53.8693 31.8216 53.8144 33.0932 54.182C34.3649 54.5495 35.4807 55.3192 36.2709 56.374C37.0611 57.4288 37.4823 58.7109 37.4705 60.0252Z" fill="#FACB1C"/>
<path d="M52.0354 31.4086C51.7473 31.5818 51.4285 31.6949 51.0974 31.7412C50.7663 31.7875 50.4295 31.7662 50.1065 31.6785C49.7835 31.5908 49.4808 31.4384 49.2159 31.2303C48.951 31.0221 48.7291 30.7622 48.5632 30.4657L33.995 4.62262C33.8257 4.32796 33.7154 4.00187 33.6704 3.66328C33.6254 3.32469 33.6467 2.98034 33.733 2.65022C33.8193 2.3201 33.9689 2.01079 34.1731 1.74023C34.3773 1.46967 34.6321 1.24326 34.9226 1.07414C41.227 -0.831904 49.3816 1.55065 53.3945 6.00653C53.3945 6.00653 54.8478 7.87708 55.2397 8.54116C55.6315 9.20523 56.4698 11.3951 56.4698 11.3951C58.7763 18.8115 56.3111 27.5357 52.0354 31.4086Z" fill="#9BC22F"/>
<path d="M72.6894 66.5968C72.401 66.7651 72.0821 66.8746 71.7511 66.9191C71.4201 66.9637 71.0835 66.9423 70.7608 66.8562C70.4382 66.7702 70.1357 66.6212 69.8711 66.4178C69.6064 66.2144 69.3847 65.9607 69.2188 65.6713L54.6376 40.4644C54.4698 40.1764 54.3606 39.8581 54.3163 39.5278C54.2721 39.1975 54.2936 38.8617 54.3798 38.5398C54.4659 38.2178 54.615 37.916 54.8183 37.6518C55.0217 37.3875 55.2754 37.166 55.5648 36.9999C61.8663 35.1389 70.0171 37.4651 74.028 41.8156C74.028 41.8156 75.4807 43.6468 75.8723 44.3199C76.264 44.993 77.1019 47.1014 77.1019 47.1014C79.4321 54.3176 76.968 62.8353 72.6894 66.5968Z" fill="#9BC22F"/>
</svg>
