<svg width="20" height="20" viewBox="0 0 20 20" fill="none" xmlns="http://www.w3.org/2000/svg">
<path d="M19.0605 11.913L19.04 11.8965L17.6678 10.8204C17.581 10.7517 17.5116 10.6633 17.4655 10.5626C17.4194 10.4618 17.3978 10.3516 17.4026 10.2409V9.73826C17.3983 9.62827 17.4201 9.51881 17.4663 9.41889C17.5124 9.31897 17.5817 9.23143 17.6683 9.16348L19.04 8.08696L19.0605 8.07043C19.272 7.8942 19.414 7.64846 19.461 7.37716C19.508 7.10586 19.4569 6.82669 19.317 6.58957L17.46 3.37652C17.4579 3.37349 17.456 3.37029 17.4544 3.36696C17.3137 3.13311 17.0955 2.95594 16.8378 2.86619C16.58 2.77644 16.299 2.77979 16.0435 2.87565L16.0283 2.8813L14.4152 3.53043C14.3134 3.5716 14.2033 3.58798 14.0939 3.57823C13.9845 3.56848 13.879 3.53287 13.7861 3.47435C13.6435 3.38449 13.4986 3.29957 13.3513 3.21957C13.2559 3.1678 13.1739 3.09431 13.112 3.00505C13.0502 2.91578 13.0102 2.81322 12.9952 2.70565L12.7522 0.984348L12.747 0.953043C12.6941 0.686434 12.551 0.446162 12.3418 0.272606C12.1326 0.0990501 11.8701 0.00278917 11.5983 0H7.88002C7.6044 0.000881968 7.33792 0.0990072 7.12755 0.277089C6.91718 0.45517 6.7764 0.701782 6.73002 0.973478L6.72611 0.997826L6.48393 2.72261C6.46908 2.82987 6.42939 2.93218 6.36802 3.0214C6.30666 3.11062 6.22531 3.18428 6.13046 3.23652C5.98278 3.31606 5.83778 3.40045 5.69567 3.48957C5.60292 3.54773 5.49769 3.58307 5.38862 3.59267C5.27956 3.60226 5.16977 3.58585 5.06828 3.54478L3.45393 2.89261L3.43872 2.88652C3.18283 2.79055 2.9014 2.78733 2.64338 2.87741C2.38536 2.9675 2.16709 3.14519 2.02654 3.37957L2.02089 3.38913L0.161325 6.60435C0.0211645 6.84171 -0.0299919 7.12119 0.0170042 7.39281C0.0640002 7.66444 0.206084 7.91048 0.417847 8.08696L0.438282 8.10348L1.81046 9.17957C1.89735 9.24831 1.9667 9.33668 2.01281 9.43743C2.05891 9.53818 2.08046 9.64844 2.07567 9.75913V10.2617C2.08003 10.3717 2.05822 10.4812 2.01204 10.5811C1.96585 10.681 1.89662 10.7686 1.81002 10.8365L0.438282 11.913L0.417847 11.9296C0.206293 12.1058 0.0643253 12.3515 0.0173294 12.6228C-0.0296664 12.8941 0.0213746 13.1733 0.161325 13.4104L2.01828 16.6235C2.02042 16.6265 2.02231 16.6297 2.02393 16.633C2.16464 16.8669 2.3828 17.0441 2.64053 17.1338C2.89826 17.2236 3.17929 17.2202 3.4348 17.1243L3.45002 17.1187L5.06176 16.4696C5.16357 16.4284 5.2737 16.412 5.38309 16.4218C5.49247 16.4315 5.59797 16.4671 5.69089 16.5257C5.8335 16.6158 5.97843 16.7007 6.12567 16.7804C6.22114 16.8322 6.30311 16.9057 6.36496 16.995C6.42682 17.0842 6.46682 17.1868 6.48176 17.2943L6.7235 19.0157L6.72872 19.047C6.78172 19.314 6.92517 19.5546 7.13489 19.7282C7.34461 19.9018 7.60778 19.9978 7.88002 20H11.5983C11.8739 19.9991 12.1404 19.901 12.3508 19.7229C12.5611 19.5448 12.7019 19.2982 12.7483 19.0265L12.7522 19.0022L12.9944 17.2774C13.0095 17.1699 13.0495 17.0675 13.1112 16.9782C13.173 16.889 13.2548 16.8155 13.35 16.7635C13.4987 16.6835 13.6439 16.5987 13.7848 16.5104C13.8776 16.4523 13.9828 16.4169 14.0919 16.4073C14.2009 16.3977 14.3107 16.4141 14.4122 16.4552L16.0265 17.1052L16.0418 17.1113C16.2976 17.2074 16.5791 17.2108 16.8372 17.1207C17.0952 17.0306 17.3135 16.8528 17.4539 16.6183C17.4557 16.615 17.4575 16.6118 17.4596 16.6087L19.3165 13.3961C19.457 13.1588 19.5083 12.8792 19.4614 12.6074C19.4145 12.3357 19.2723 12.0895 19.0605 11.913ZM13.2135 10.1635C13.1818 10.8368 12.9552 11.4864 12.5612 12.0333C12.1672 12.5802 11.6228 13.0008 10.9942 13.244C10.3656 13.4872 9.67981 13.5426 9.02032 13.4033C8.36083 13.264 7.75602 12.9361 7.27943 12.4594C6.80284 11.9828 6.47501 11.3779 6.3358 10.7184C6.1966 10.0589 6.25201 9.37319 6.49531 8.74459C6.73861 8.116 7.15931 7.57163 7.70625 7.1777C8.25319 6.78376 8.90281 6.55723 9.57611 6.52565C10.0595 6.50437 10.542 6.5839 10.993 6.7592C11.4439 6.93449 11.8535 7.20171 12.1956 7.54386C12.5377 7.88601 12.8049 8.2956 12.9801 8.74659C13.1554 9.19758 13.2348 9.68011 13.2135 10.1635Z" fill="#5F5F5F"/>
</svg>
