<svg width="25" height="20" viewBox="0 0 25 20" fill="none" xmlns="http://www.w3.org/2000/svg">
<path d="M22 20C23.1046 20 24 19.1046 24 18C24 16.8954 23.1046 16 22 16C20.8954 16 20 16.8954 20 18C20 19.1046 20.8954 20 22 20Z" fill="#5F5F5F"/>
<path d="M7.5 20C8.60457 20 9.5 19.1046 9.5 18C9.5 16.8954 8.60457 16 7.5 16C6.39543 16 5.5 16.8954 5.5 18C5.5 19.1046 6.39543 20 7.5 20Z" fill="#5F5F5F"/>
<path fill-rule="evenodd" clip-rule="evenodd" d="M17.2908 1.5H5.5595L5.364 0.7485C5.3083 0.534163 5.18304 0.344378 5.00785 0.208913C4.83266 0.0734482 4.61745 -3.15708e-05 4.396 1.01757e-08H1C0.734784 1.01757e-08 0.48043 0.105357 0.292893 0.292893C0.105357 0.48043 0 0.734784 0 1C0 1.26522 0.105357 1.51957 0.292893 1.70711C0.48043 1.89464 0.734784 2 1 2H3.623L6.293 12.2725L5.243 13.975C5.1496 14.1265 5.09837 14.3002 5.09459 14.4781C5.09081 14.656 5.13462 14.8317 5.2215 14.987C5.30802 15.1425 5.43453 15.272 5.58793 15.3622C5.74133 15.4524 5.91605 15.5 6.094 15.5H23.5C23.7652 15.5 24.0196 15.3946 24.2071 15.2071C24.3946 15.0196 24.5 14.7652 24.5 14.5C24.5 14.2348 24.3946 13.9804 24.2071 13.7929C24.0196 13.6054 23.7652 13.5 23.5 13.5H7.8855L8.219 12.959C8.362 12.727 8.404 12.4465 8.3355 12.1825L8.01 10.9295L22.5015 10.1765C23.051 10.1485 23.5 9.675 23.5 9.125V6.12269C22.8152 6.67164 21.9459 7 21 7C18.7909 7 17 5.20914 17 3C17 2.46955 17.1033 1.96322 17.2908 1.5Z" fill="#5F5F5F"/>
<circle cx="21" cy="3" r="3" fill="#FACB1C"/>
</svg>
