<svg width="20" height="20" viewBox="0 0 20 20" fill="none" xmlns="http://www.w3.org/2000/svg">
<path d="M7.55293 5.76267L7.78951 5.53736C8.37532 4.92902 8.27393 4.64738 7.69938 4.07283L4.63514 0.974793C3.72263 0.0510139 3.55364 -0.388344 2.68619 0.434044L2.44962 0.659356L7.55293 5.76267ZM6.95585 6.26962L1.99899 1.31276C1.2104 2.37173 -0.637159 5.22192 0.275354 7.32859C1.09774 9.20994 1.50331 9.30007 2.52847 10.7083C4.61261 13.0853 7.23749 15.6313 9.28783 17.5465C10.7073 18.5717 10.7636 19.0448 12.6675 19.7996C14.6953 20.5995 17.6244 18.797 18.7284 18.0422L13.7715 13.0853L12.4422 14.9103C12.0592 15.4286 11.0903 14.8427 10.4144 14.1668C9.24277 12.9839 6.83193 10.5843 5.90815 9.58171C5.24348 8.91704 4.64641 7.9482 5.16462 7.5539L6.95585 6.26962ZM19.3705 17.5915L19.6071 17.355C20.3732 16.5213 19.9338 16.3411 19.0213 15.4398L15.9345 12.3756C15.36 11.8236 15.0896 11.6996 14.5038 12.2517L14.2785 12.4882L19.3705 17.5915Z" fill="#5F5F5F"/>
</svg>
