<svg width="17" height="20" viewBox="0 0 17 20" fill="none" xmlns="http://www.w3.org/2000/svg">
<path d="M16.6667 16.5495C16.6667 17.4957 16.3954 18.3073 15.8529 18.9844C15.3103 19.6615 14.6571 20 13.8932 20H2.77344C2.00955 20 1.35634 19.6615 0.813802 18.9844C0.271267 18.3073 0 17.4957 0 16.5495C0 15.8116 0.0368924 15.115 0.110677 14.4596C0.184462 13.8043 0.321181 13.1445 0.520833 12.4805C0.720486 11.8164 0.974392 11.2478 1.28255 10.7747C1.59071 10.3016 1.9987 9.91536 2.50651 9.61588C3.01432 9.31641 3.59809 9.16667 4.25781 9.16667C5.39497 10.2778 6.75347 10.8333 8.33333 10.8333C9.91319 10.8333 11.2717 10.2778 12.4089 9.16667C13.0686 9.16667 13.6523 9.31641 14.1602 9.61588C14.668 9.91536 15.076 10.3016 15.3841 10.7747C15.6923 11.2478 15.9462 11.8164 16.1458 12.4805C16.3455 13.1445 16.4822 13.8043 16.556 14.4596C16.6298 15.115 16.6667 15.8116 16.6667 16.5495ZM13.3333 5C13.3333 6.38021 12.8451 7.55859 11.8685 8.53516C10.8919 9.51172 9.71354 10 8.33333 10C6.95312 10 5.77474 9.51172 4.79818 8.53516C3.82161 7.55859 3.33333 6.38021 3.33333 5C3.33333 3.61979 3.82161 2.44141 4.79818 1.46484C5.77474 0.488281 6.95312 0 8.33333 0C9.71354 0 10.8919 0.488281 11.8685 1.46484C12.8451 2.44141 13.3333 3.61979 13.3333 5Z" fill="#5F5F5F"/>
</svg>
