<svg width="25" height="21" viewBox="0 0 25 21" fill="none" xmlns="http://www.w3.org/2000/svg">
<path fill-rule="evenodd" clip-rule="evenodd" d="M22.8827 6.73193C22.4351 6.90506 21.9487 7 21.44 7C20.0731 7 18.8663 6.31433 18.1448 5.26816H7.15084C6.36127 5.26816 5.68715 5.54749 5.12849 6.10614C4.56983 6.6648 4.2905 7.33892 4.2905 8.12849V15.1899C3.87337 15.0857 3.53073 14.8659 3.26257 14.5307C2.99441 14.1955 2.86034 13.8119 2.86034 13.3799V5.75978C2.86034 5.22346 3.054 4.76909 3.44134 4.39665C3.82868 4.02421 4.29795 3.83799 4.84916 3.83799H17.5279C17.4703 3.56775 17.44 3.28742 17.44 3C17.44 2.27143 17.6348 1.58835 17.9751 1H2.86034C2.07076 1 1.39665 1.27561 0.837989 1.82682C0.27933 2.37803 0 3.04842 0 3.83799V15.2793C0 16.0689 0.27933 16.743 0.837989 17.3017C1.39665 17.8603 2.07076 18.1397 2.86034 18.1397H4.2905C4.2905 18.9292 4.56983 19.6034 5.12849 20.162C5.68715 20.7207 6.36127 21 7.15084 21H20.0223C20.8119 21 21.486 20.7207 22.0447 20.162C22.6034 19.6034 22.8827 18.9292 22.8827 18.1397V6.73193ZM11.4413 13.1341C11.4413 14.5642 10.7263 15.2793 9.29609 15.2793C7.86592 15.2793 7.15084 14.5642 7.15084 13.1341C7.15084 11.7039 7.86592 10.9888 9.29609 10.9888C10.7263 10.9888 11.4413 11.7039 11.4413 13.1341Z" fill="#5F5F5F"/>
<circle cx="21.4404" cy="3" r="3" fill="#FACB1C"/>
</svg>
